<?xml version="1.0" standalone="no"?>
<!DOCTYPE svg PUBLIC "-//W3C//DTD SVG 20010904//EN"
 "http://www.w3.org/TR/2001/REC-SVG-20010904/DTD/svg10.dtd">
<svg version="1.0" xmlns="http://www.w3.org/2000/svg"
 width="700.000000pt" height="700.000000pt" viewBox="0 0 700.000000 700.000000"
 preserveAspectRatio="xMidYMid meet">
<metadata>
Created by potrace 1.14, written by Peter Selinger 2001-2017
</metadata>
<g transform="translate(0.000000,700.000000) scale(0.100000,-0.100000)"
fill="#000000" stroke="none">
<path d="M3120 6985 c-831 -105 -1534 -446 -2106 -1020 -584 -588 -931 -1343
-1005 -2185 -15 -168 -6 -561 16 -720 108 -791 447 -1482 1000 -2035 540 -540
1213 -877 1990 -996 179 -27 599 -37 797 -19 692 62 1328 317 1875 752 155
122 426 392 547 543 409 512 656 1102 743 1770 25 198 25 652 0 850 -87 669
-333 1254 -743 1770 -112 141 -397 425 -539 539 -498 396 -1054 637 -1700 736
-185 29 -695 37 -875 15z m1347 -1529 c326 -23 344 -25 385 -49 55 -32 72 -51
99 -112 35 -79 25 -123 -96 -435 -64 -167 -104 -283 -101 -296 3 -11 135 -241
292 -510 158 -269 298 -514 312 -544 46 -98 43 -173 -18 -475 -32 -158 -61
-280 -76 -310 -48 -103 -139 -181 -252 -215 -31 -9 -142 -32 -246 -51 l-188
-34 -51 -74 c-76 -114 -167 -198 -328 -303 -239 -158 -469 -268 -694 -333 -49
-14 -288 -74 -530 -132 -508 -124 -538 -127 -646 -76 -73 34 -139 95 -168 156
-22 46 -225 722 -271 906 -61 240 -90 477 -90 741 0 269 22 394 100 556 l39
81 -70 194 c-102 284 -108 356 -45 495 32 70 84 124 293 306 194 170 214 184
297 210 55 17 101 18 673 18 337 -1 617 1 622 4 5 3 37 47 72 98 120 175 164
208 279 208 36 -1 219 -11 407 -24z"/>
<path d="M4020 5029 c-89 -132 -133 -173 -202 -190 -38 -9 -211 -11 -683 -8
l-631 4 -160 -140 c-210 -184 -224 -198 -224 -228 0 -14 38 -134 85 -266 47
-133 85 -257 85 -276 0 -40 -10 -65 -67 -165 -70 -123 -84 -198 -85 -445 -1
-232 16 -393 58 -585 27 -118 256 -905 267 -917 10 -9 885 203 1022 248 158
52 349 147 515 257 147 97 233 179 277 265 38 77 78 123 120 140 21 8 142 34
268 57 246 44 281 54 294 79 5 9 30 122 56 251 36 181 45 241 38 261 -6 14
-137 243 -293 509 -155 266 -294 508 -309 539 -23 50 -26 68 -25 161 l0 105
82 209 c45 115 80 211 78 214 -6 6 -359 31 -436 31 l-55 0 -75 -110z"/>
</g>
</svg>
